#N canvas 1 382 401 615 10;
#X text 30 42 y_size;
#X obj 5 5 bng 30 250 50 0 empty empty empty 17 7 0 10 -262130 -1 -1
;
#X obj 16 440 metro 50;
#X obj 16 421 tgl 15 0 empty empty empty 17 7 0 10 -262144 -1 -1 1
1;
#N canvas 0 50 450 300 patch 0;
#N canvas 13 198 450 300 create_window 0;
#X obj 30 245 gemwin;
#X msg 30 219 destroy \, dimen \$1 \$2 \, create \, 1 \, color 1 1
1;
#X obj 30 119 * 1.7658;
#X obj 30 143 pack float float;
#X obj 30 44 inlet;
#X obj 30 90 trigger float float;
#X obj 30 171 t l l;
#X obj 57 195 s size;
#X connect 1 0 0 0;
#X connect 2 0 3 0;
#X connect 3 0 6 0;
#X connect 4 0 5 0;
#X connect 5 0 2 0;
#X connect 5 1 3 1;
#X connect 6 0 1 0;
#X connect 6 1 7 0;
#X restore 5 50 pd create_window;
#N canvas 228 583 380 347 create_background 0;
#X obj 14 23 gemhead;
#X obj 13 182 pix_image;
#X msg 20 157 open g4722.png;
#X obj 14 52 alpha;
#X obj 13 214 pix_texture;
#X obj 13 313 rectangle;
#X msg 47 241 4;
#X obj 38 268 t f f;
#X obj 38 290 * 1.7658;
#X obj 20 108 loadbang;
#X obj 20 131 t b b;
#X obj 14 83 colorRGB 1 1 1 0.3;
#X obj 119 53 / 100;
#X obj 119 25 inlet;
#X obj 14 3 inlet;
#X connect 0 0 3 0;
#X connect 1 0 4 0;
#X connect 2 0 1 0;
#X connect 3 0 11 0;
#X connect 4 0 5 0;
#X connect 6 0 7 0;
#X connect 7 0 8 0;
#X connect 7 1 5 2;
#X connect 8 0 5 1;
#X connect 9 0 10 0;
#X connect 10 0 2 0;
#X connect 10 1 6 0;
#X connect 11 0 1 0;
#X connect 12 0 11 4;
#X connect 13 0 12 0;
#X connect 14 0 0 0;
#X restore 5 70 pd create_background;
#X obj 171 116 unpack;
#X obj 171 137 v Xs;
#X obj 204 137 v Ys;
#X obj 171 94 r size;
#N canvas 270 485 450 300 mouse 0;
#X obj 8 8 gemmouse;
#X obj 19 109 expr Ys-$f1;
#X obj 19 129 expr $f1 / Ys;
#X obj 8 213 expr $f1 / Ys;
#X obj 30 77 s lmb;
#X obj 41 57 s mmb;
#X obj 53 37 s rmb;
#X obj 8 261 s mx;
#X obj 19 176 s my;
#X connect 0 0 3 0;
#X connect 0 1 1 0;
#X connect 0 2 4 0;
#X connect 0 3 5 0;
#X connect 0 4 6 0;
#X connect 1 0 2 0;
#X connect 2 0 8 0;
#X connect 3 0 7 0;
#X restore 5 90 pd mouse;
#X obj 5 182 tgl 15 0 empty empty show/hide_arrow 17 7 0 10 -262144
-1 -1 1 1;
#N canvas 220 421 444 500 visitor 0;
#X obj 20 10 gemhead;
#X obj 20 428 circle 0.1;
#X obj 20 259 translateXYZ 0 0 0.1;
#X obj 20 50 ortho;
#X msg 88 32 compat 0;
#X obj 88 11 loadbang;
#X obj 20 366 t a a;
#X obj 20 395 colorRGB 1 0 0;
#X obj 59 202 * 8;
#X obj 59 226 expr $f1 - 4*1.7658;
#X obj 98 181 * 8;
#X obj 98 201 - 4;
#X msg 59 92 0.2 0.68;
#N canvas 0 50 450 300 arrow 0;
#X obj 109 119 separator;
#X obj 109 217 rotateXYZ 90 0 45;
#X obj 109 240 cone 0.08 4;
#X obj 109 169 colorRGB 1 0 0;
#X obj 109 93 spigot 1;
#X obj 154 46 inlet;
#X obj 109 141 rotateXYZ 0 0 90;
#X obj 109 194 translateXYZ 0 -0.22 0;
#X obj 109 46 inlet;
#X connect 0 0 6 0;
#X connect 1 0 2 0;
#X connect 3 0 7 0;
#X connect 4 0 0 0;
#X connect 5 0 4 1;
#X connect 6 0 3 0;
#X connect 7 0 1 0;
#X connect 8 0 4 0;
#X restore 196 384 pd arrow;
#X obj 241 320 inlet;
#X obj 20 331 rotateXYZ 0 0 0;
#N canvas 0 50 450 300 rotate 0;
#X obj 134 90 r mmb;
#X obj 60 108 spigot;
#X obj 33 17 r my;
#X obj 33 47 t f f;
#X obj 60 80 -;
#X obj 94 203 +;
#X obj 60 176 t b f;
#X obj 60 203 f;
#X obj 60 227 * 360;
#X obj 60 131 * 2;
#X obj 60 278 outlet;
#X obj 60 153 * -1;
#X connect 0 0 1 1;
#X connect 1 0 9 0;
#X connect 2 0 3 0;
#X connect 3 0 4 1;
#X connect 3 1 4 0;
#X connect 4 0 1 0;
#X connect 5 0 7 1;
#X connect 6 0 7 0;
#X connect 6 1 5 1;
#X connect 7 0 5 0;
#X connect 7 0 8 0;
#X connect 8 0 10 0;
#X connect 9 0 11 0;
#X connect 11 0 6 0;
#X restore 107 283 pd rotate;
#X obj 59 68 loadbang;
#N canvas 635 69 448 597 translate 0;
#X obj 199 43 r mx;
#X obj 274 43 r my;
#X obj 192 106 -;
#X obj 199 81 t b f;
#X obj 267 107 -;
#X obj 274 82 t b f;
#X obj 192 127 abs;
#X obj 267 128 abs;
#X obj 192 148 t f f;
#X obj 267 149 t f f;
#X obj 192 178 *;
#X obj 267 179 *;
#X obj 267 240 +;
#X obj 267 265 sqrt;
#X obj 267 210 t b f;
#X obj 267 288 < 0.01;
#X obj 234 371 r mx;
#X obj 234 400 spigot;
#X obj 345 399 spigot;
#X obj 345 370 r my;
#X obj 267 342 trigger float float;
#X obj 299 319 &;
#X obj 315 264 r lmb;
#X obj 315 290 t b f;
#X obj 28 219 f;
#X obj 91 223 f;
#X obj 28 295 t f f;
#X obj 91 299 t f f;
#X obj 28 143 unpack;
#X obj 28 114 inlet;
#X obj 28 569 outlet;
#X obj 91 571 outlet;
#X connect 0 0 3 0;
#X connect 1 0 5 0;
#X connect 2 0 6 0;
#X connect 3 0 2 0;
#X connect 3 1 2 1;
#X connect 4 0 7 0;
#X connect 5 0 4 0;
#X connect 5 1 4 1;
#X connect 6 0 8 0;
#X connect 7 0 9 0;
#X connect 8 0 10 0;
#X connect 8 1 10 1;
#X connect 9 0 11 0;
#X connect 9 1 11 1;
#X connect 10 0 12 0;
#X connect 11 0 14 0;
#X connect 12 0 13 0;
#X connect 13 0 15 0;
#X connect 14 0 12 0;
#X connect 14 1 12 1;
#X connect 15 0 21 0;
#X connect 16 0 17 0;
#X connect 17 0 24 0;
#X connect 18 0 25 0;
#X connect 19 0 18 0;
#X connect 20 0 17 1;
#X connect 20 1 18 1;
#X connect 21 0 20 0;
#X connect 22 0 23 0;
#X connect 23 0 21 0;
#X connect 23 1 21 1;
#X connect 24 0 26 0;
#X connect 25 0 27 0;
#X connect 26 0 30 0;
#X connect 26 1 2 0;
#X connect 27 0 31 0;
#X connect 27 1 4 0;
#X connect 28 0 24 0;
#X connect 28 1 25 0;
#X connect 29 0 28 0;
#X restore 59 114 pd translate;
#X obj 59 142 t f f;
#X obj 128 142 t f f;
#X obj 194 189 pack;
#X obj 107 307 t f f;
#X obj 134 335 s visrot;
#X obj 194 213 s viscoord;
#X connect 0 0 3 0;
#X connect 2 0 15 0;
#X connect 3 0 2 0;
#X connect 4 0 3 0;
#X connect 5 0 4 0;
#X connect 6 0 7 0;
#X connect 6 1 13 0;
#X connect 7 0 1 0;
#X connect 8 0 9 0;
#X connect 9 0 2 1;
#X connect 10 0 11 0;
#X connect 11 0 2 2;
#X connect 12 0 18 0;
#X connect 14 0 13 1;
#X connect 15 0 6 0;
#X connect 16 0 22 0;
#X connect 17 0 12 0;
#X connect 18 0 19 0;
#X connect 18 1 20 0;
#X connect 19 0 8 0;
#X connect 19 1 21 0;
#X connect 20 0 10 0;
#X connect 20 1 21 1;
#X connect 21 0 24 0;
#X connect 22 0 15 3;
#X connect 22 1 23 0;
#X restore 5 202 pd visitor;
#X msg 5 158 1;
#X obj 5 136 loadbang;
#X floatatom 122 45 5 0 0 1 background_transparency - -, f 5;
#X msg 122 24 48;
#X obj 122 3 loadbang;
#X obj 5 16 inlet;
#X connect 2 0 3 0;
#X connect 2 1 4 0;
#X connect 5 0 2 0;
#X connect 7 0 8 0;
#X connect 9 0 7 0;
#X connect 10 0 9 0;
#X connect 11 0 1 1;
#X connect 12 0 11 0;
#X connect 13 0 12 0;
#X connect 14 0 0 0;
#X restore 5 66 pd patch;
#N canvas 40 267 450 300 tracking 0;
#X obj 211 124 r visrot;
#N canvas 74 168 450 774 point_tracking 0;
#X obj 161 736 outlet;
#X obj 254 59 r viscoord;
#X obj 122 93 coll sensors;
#C restore;
#X msg 122 72 dump;
#X msg 141 156 \$1 \$2;
#N canvas 0 50 450 300 length 0;
#X obj 118 5 inlet;
#X obj 214 5 inlet;
#X obj 118 51 unpack;
#X obj 214 51 unpack;
#X obj 140 115 -;
#X obj 204 113 -;
#X obj 140 159 *;
#X obj 140 137 t f f;
#X obj 204 157 *;
#X obj 204 135 t f f;
#X obj 176 201 +;
#X obj 176 225 sqrt;
#X obj 176 261 outlet;
#X connect 0 0 2 0;
#X connect 1 0 3 0;
#X connect 2 0 4 0;
#X connect 2 1 5 0;
#X connect 3 0 4 1;
#X connect 3 1 5 1;
#X connect 4 0 7 0;
#X connect 5 0 9 0;
#X connect 6 0 10 0;
#X connect 7 0 6 0;
#X connect 7 1 6 1;
#X connect 8 0 10 1;
#X connect 9 0 8 0;
#X connect 9 1 8 1;
#X connect 10 0 11 0;
#X connect 11 0 12 0;
#X restore 141 192 pd length;
#X msg 227 178 \$4;
#X obj 227 218 * 1.24;
#X obj 194 264 <;
#X msg 122 251 \$3;
#X obj 161 326 spigot;
#X obj 135 296 pack;
#X obj 180 239 * 10;
#X obj 156 266 * 10;
#X obj 194 287 t f f;
#X obj 31 5 inlet;
#X obj 161 360 t a a;
#X msg 338 378 \$1;
#X obj 338 399 f;
#X obj 122 120 t l l l l;
#X obj 311 430 route;
#X obj 141 214 t f f f;
#N canvas 0 50 450 300 length 0;
#X obj 118 5 inlet;
#X obj 215 4 inlet;
#X obj 118 51 unpack;
#X obj 215 47 unpack;
#X obj 140 102 -;
#X obj 204 100 -;
#X obj 140 146 *;
#X obj 140 124 t f f;
#X obj 204 144 *;
#X obj 204 122 t f f;
#X obj 176 201 +;
#X obj 176 225 sqrt;
#X obj 176 261 outlet;
#X obj 186 178 t b f;
#X obj 215 76 t b f;
#X obj 149 81 t b f;
#X connect 0 0 2 0;
#X connect 1 0 3 0;
#X connect 2 0 4 0;
#X connect 2 1 5 0;
#X connect 3 0 15 0;
#X connect 3 1 14 0;
#X connect 4 0 7 0;
#X connect 5 0 9 0;
#X connect 6 0 10 0;
#X connect 7 0 6 0;
#X connect 7 1 6 1;
#X connect 8 0 13 0;
#X connect 9 0 8 0;
#X connect 9 1 8 1;
#X connect 10 0 11 0;
#X connect 11 0 12 0;
#X connect 13 0 10 0;
#X connect 13 1 10 1;
#X connect 14 0 5 0;
#X connect 14 1 5 1;
#X connect 15 0 4 0;
#X connect 15 1 4 1;
#X restore 260 535 pd length;
#X obj 254 92 t l l;
#X msg 311 190 \$3 \$1 \$2 \$4;
#X obj 311 462 t a a;
#X msg 311 494 \$1 \$2;
#X msg 352 494 \$3;
#X obj 352 524 * 1.24;
#X obj 31 33 t b b b;
#X obj 260 312 list;
#X obj 260 562 * 10;
#X obj 299 603 >;
#X obj 31 356 f 0;
#X obj 211 695 spigot;
#X connect 1 0 23 0;
#X connect 2 0 19 0;
#X connect 3 0 2 0;
#X connect 4 0 5 0;
#X connect 5 0 21 0;
#X connect 6 0 7 0;
#X connect 7 0 8 1;
#X connect 8 0 14 0;
#X connect 9 0 11 0;
#X connect 10 0 16 0;
#X connect 11 0 10 0;
#X connect 12 0 8 0;
#X connect 13 0 11 1;
#X connect 14 0 10 1;
#X connect 15 0 29 0;
#X connect 16 0 0 0;
#X connect 16 1 17 0;
#X connect 17 0 18 0;
#X connect 18 0 20 1;
#X connect 19 0 9 0;
#X connect 19 1 4 0;
#X connect 19 2 6 0;
#X connect 19 3 24 0;
#X connect 20 0 25 0;
#X connect 21 0 13 0;
#X connect 21 1 12 0;
#X connect 22 0 31 0;
#X connect 23 0 5 1;
#X connect 23 1 30 1;
#X connect 24 0 20 0;
#X connect 25 0 26 0;
#X connect 25 1 27 0;
#X connect 26 0 22 1;
#X connect 27 0 28 0;
#X connect 28 0 32 1;
#X connect 29 0 33 0;
#X connect 29 1 3 0;
#X connect 29 2 30 0;
#X connect 30 0 22 0;
#X connect 31 0 32 0;
#X connect 32 0 34 1;
#X connect 33 0 34 0;
#X connect 34 0 0 0;
#X restore 63 161 pd point_tracking;
#X obj 63 186 unpack;
#X obj 196 160 f;
#X obj 63 114 t b b;
#X obj 63 254 outlet;
#X obj 126 254 outlet;
#X obj 196 254 outlet;
#X obj 63 47 inlet;
#X connect 0 0 3 1;
#X connect 1 0 2 0;
#X connect 2 0 5 0;
#X connect 2 1 6 0;
#X connect 3 0 7 0;
#X connect 4 0 1 0;
#X connect 4 1 3 0;
#X connect 8 0 4 0;
#X restore 16 466 pd tracking;
#X floatatom 79 542 5 0 0 0 - - -, f 5;
#X obj 16 398 loadbang;
#X floatatom 47 522 5 0 0 0 - - -, f 5;
#X floatatom 16 502 5 0 0 0 - - -, f 5;
#X text 3 503 1;
#X text 34 523 2;
#X text 66 543 3;
#X text 6 577 2) Расстояние до её центра;
#X text 6 589 3) Угол поворота точки (посетителя)
в градусах;
#X text 6 564 1) Окружность внутри которой находимся
(0-на пустом поле);
#X text 37 10 Render;
#X msg 140 186 clear;
#N canvas 717 230 505 696 edit_sensors 1;
#N canvas 192 452 729 588 sensors 0;
#X obj 46 430 translateXYZ 0 0 0.1;
#X obj 46 233 ortho;
#X msg 70 207 compat 0;
#X obj 46 257 t a a a;
#X obj 46 308 separator;
#X obj 198 306 separator;
#X obj 198 490 text2d;
#X msg 277 445 justify left base;
#X obj 198 365 translateXYZ 0.1 -0.05 0.1;
#X obj 311 407 loadbang;
#X obj 431 275 separator;
#X msg 446 454 draw line;
#X obj 70 182 loadbang;
#X msg 240 401 text \$1;
#X obj 431 310 translateXYZ 0 0 0.1;
#X obj 85 7 inlet;
#X obj 85 109 unpack;
#X obj 240 6 inlet;
#X obj 476 6 inlet;
#X obj 431 487 circle 1;
#X obj 46 7 inlet;
#X obj 46 83 alpha;
#X obj 46 138 translateXYZ 0 0 0.1;
#X msg 277 472 20;
#X obj 46 461 circle 0.06;
#X msg 311 472 alias 0;
#X obj 198 334 colorRGB 0 0 0;
#X obj 431 347 colorRGB 0 0 0;
#X obj 46 354 colorRGB 0 0 0;
#X connect 0 0 24 0;
#X connect 1 0 3 0;
#X connect 2 0 1 0;
#X connect 3 0 4 0;
#X connect 3 1 5 0;
#X connect 3 2 10 0;
#X connect 4 0 28 0;
#X connect 5 0 26 0;
#X connect 7 0 6 0;
#X connect 8 0 6 0;
#X connect 9 0 7 0;
#X connect 9 0 23 0;
#X connect 9 0 11 0;
#X connect 9 0 25 0;
#X connect 10 0 14 0;
#X connect 11 0 19 0;
#X connect 12 0 2 0;
#X connect 13 0 6 0;
#X connect 14 0 27 0;
#X connect 15 0 16 0;
#X connect 16 0 22 1;
#X connect 16 1 22 2;
#X connect 17 0 13 0;
#X connect 18 0 19 1;
#X connect 20 0 21 0;
#X connect 21 0 22 0;
#X connect 22 0 1 0;
#X connect 23 0 6 1;
#X connect 25 0 6 0;
#X connect 26 0 8 0;
#X connect 27 0 19 0;
#X connect 28 0 0 0;
#X restore 136 532 pd sensors;
#X obj 104 46 gemhead;
#X obj 92 261 separator;
#X obj 104 71 t a b;
#X obj 92 234 gemlist;
#X obj 92 165 until;
#X obj 104 111 t b a;
#X obj 92 193 t b b;
#X obj 165 211 i;
#X obj 198 211 + 1;
#X msg 180 184 0;
#X obj 104 17 tgl 15 0 empty empty empty 17 7 0 10 -262144 -1 -1 0
1;
#X obj 165 238 + 1;
#X obj 149 478 pack;
#X obj 149 352 unpack f f f f;
#X msg 92 141 30;
#N canvas 97 472 572 511 edit 0;
#X obj 48 481 outlet;
#X msg 209 391 store \$1 \$2 \$3 \$1 \$4;
#X obj 48 428 cyclone/coll sensors;
#C restore;
#X obj 232 106 r mx;
#X obj 288 107 r my;
#X obj 93 28 r lmb;
#X obj 367 269 t b f;
#X obj 232 271 spigot 0;
#X obj 288 271 spigot 0;
#X obj 120 189 sel 1;
#X obj 120 104 t f b b f f;
#N canvas 0 50 450 300 delta 0;
#X obj 30 241 outlet;
#X obj 63 96 r rmb;
#X obj 30 150 spigot;
#X obj 29 28 r my;
#X obj 29 55 t f f;
#X obj 30 80 -;
#X obj 30 201 f;
#X obj 57 201 +;
#X obj 30 173 t b f;
#X connect 1 0 2 1;
#X connect 2 0 8 0;
#X connect 3 0 4 0;
#X connect 4 0 5 1;
#X connect 4 1 5 0;
#X connect 5 0 2 0;
#X connect 6 0 7 0;
#X connect 6 0 0 0;
#X connect 7 0 6 1;
#X connect 8 0 6 0;
#X connect 8 1 7 1;
#X restore 367 242 pd delta;
#X obj 209 346 pack f f f f;
#X obj 195 302 f;
#X obj 93 52 spigot 0;
#X obj 210 11 inlet;
#X obj 138 12 inlet;
#X obj 48 19 inlet;
#X obj 93 81 t f f;
#X obj 93 482 outlet;
#X obj 232 196 f;
#X obj 288 195 f;
#X obj 261 300 spigot 0;
#X connect 1 0 2 0;
#X connect 2 0 0 0;
#X connect 3 0 20 0;
#X connect 4 0 21 0;
#X connect 5 0 14 0;
#X connect 6 0 22 0;
#X connect 6 1 12 3;
#X connect 7 0 12 1;
#X connect 8 0 12 2;
#X connect 9 0 13 0;
#X connect 10 0 9 0;
#X connect 10 1 20 0;
#X connect 10 2 21 0;
#X connect 10 3 7 1;
#X connect 10 4 8 1;
#X connect 11 0 6 0;
#X connect 12 0 1 0;
#X connect 13 0 12 0;
#X connect 14 0 18 0;
#X connect 15 0 13 1;
#X connect 16 0 14 1;
#X connect 16 0 22 1;
#X connect 17 0 2 0;
#X connect 18 0 19 0;
#X connect 18 1 10 0;
#X connect 20 0 7 0;
#X connect 21 0 8 0;
#X connect 22 0 13 0;
#X restore 149 329 pd edit;
#X obj 285 30 inlet;
#X obj 350 30 inlet;
#X obj 404 30 inlet;
#X obj 404 104 bang;
#X msg 404 127 0;
#X obj 352 170 bang;
#X msg 352 198 1;
#X obj 404 69 route clear;
#X obj 149 427 * 8;
#X obj 149 454 expr $f1 - 4*1.7658;
#X obj 170 376 * 8;
#X obj 170 396 - 4;
#X connect 1 0 3 0;
#X connect 2 0 0 0;
#X connect 3 0 6 0;
#X connect 3 1 10 0;
#X connect 4 0 2 0;
#X connect 5 0 7 0;
#X connect 6 0 15 0;
#X connect 6 1 4 1;
#X connect 7 0 4 0;
#X connect 7 1 8 0;
#X connect 8 0 9 0;
#X connect 8 0 12 0;
#X connect 9 0 8 1;
#X connect 10 0 8 1;
#X connect 11 0 1 0;
#X connect 12 0 16 0;
#X connect 13 0 0 1;
#X connect 14 0 25 0;
#X connect 14 1 27 0;
#X connect 14 2 0 2;
#X connect 14 3 0 3;
#X connect 15 0 5 0;
#X connect 16 0 14 0;
#X connect 16 1 22 0;
#X connect 17 0 16 1;
#X connect 18 0 16 2;
#X connect 19 0 16 0;
#X connect 19 0 24 0;
#X connect 20 0 21 0;
#X connect 21 0 11 0;
#X connect 22 0 23 0;
#X connect 23 0 11 0;
#X connect 24 0 20 0;
#X connect 25 0 26 0;
#X connect 26 0 13 0;
#X connect 27 0 28 0;
#X connect 28 0 13 1;
#X restore 5 204 pd edit_sensors;
#X obj 5 100 tgl 30 0 empty empty empty 4 7 0 10 -262130 -1 -1 0 1
;
#X floatatom 48 137 5 1 100 1 sensor_to_add/edit - -, f 5;
#X msg 92 160 write sensors;
#X text 178 186 delete all;
#X text 37 106 Edit mode;
#X text 176 159 save to file;
#X text 4 228 Порядок работы:;
#X text 4 248 1) Нажать Render;
#X text 4 262 2) Нажать Edit mode и clear;
#X text 4 290 4) Кликнуть правой кнопкой мыши
на пустом поле;
#X text 4 304 5) Левой кнопкой мыши отрегулировать
радиус;
#X text 4 318 6) GOTO 3;
#X text 4 276 3) Ввести номер в боксе "Sensor_to_add/edit"
(начиная с 1);
#X text 4 333 После редактирования убрать
галку с Edit mode \, после чего можно начать
перемещение большой точки со стрелкой
левой кнопкой мыши. Средняя кнопка поворачивает
точку. "Write sensors" сохраняет данные о точках
в файл., f 64;
#X msg 5 43 500;
#X connect 1 0 33 0;
#X connect 2 0 5 0;
#X connect 3 0 2 0;
#X connect 5 0 9 0;
#X connect 5 1 8 0;
#X connect 5 2 6 0;
#X connect 7 0 3 0;
#X connect 17 0 18 2;
#X connect 19 0 18 0;
#X connect 20 0 18 1;
#X connect 21 0 18 2;
#X connect 33 0 4 0;
